<svg width="178" height="89" viewBox="0 0 178 89" fill="none" xmlns="http://www.w3.org/2000/svg">
<path d="M89.0589 22.0527C96.3343 14.7773 105.378 12.8055 112.082 12.5123C117.925 12.2574 122.513 16.846 122.258 22.6887C121.965 29.3931 119.993 38.4364 112.718 45.7118C105.268 53.1619 96.8901 57.832 90.9593 60.4997C86.242 62.6207 80.8862 61.1982 77.2293 57.5414C73.5712 53.8833 72.1501 48.53 74.2723 43.8114C76.9387 37.8807 81.6089 29.5027 89.0602 22.054L89.0589 22.0527Z" fill="#D4E7FF"/>
<path d="M96.3738 33.301C97.0847 34.0139 97.9292 34.5796 98.8589 34.9658C99.7887 35.3519 100.785 35.551 101.792 35.5517C102.799 35.5523 103.796 35.3544 104.726 34.9694C105.656 34.5844 106.502 34.0197 107.213 33.3077C107.925 32.5958 108.49 31.7505 108.874 30.8202C109.259 29.8898 109.457 28.8928 109.456 27.886C109.455 26.8793 109.256 25.8826 108.869 24.9529C108.483 24.0233 107.917 23.1789 107.204 22.4682C106.493 21.757 105.648 21.1928 104.719 20.808C103.79 20.4231 102.794 20.225 101.788 20.2251C99.7564 20.2252 97.8082 21.0323 96.3719 22.4688C94.9355 23.9054 94.1287 25.8536 94.1288 27.8851C94.1289 29.9165 94.936 31.8647 96.3725 33.301H96.3738Z" fill="white"/>
<path d="M160.598 56.5802C161.456 60.6513 166.5 61.2197 169.008 60.6933C175.644 59.2964 173.836 49.2219 167.096 49.2219C164.481 49.2219 159.742 52.5104 160.598 56.5802Z" fill="url(#paint0_linear_82_307)"/>
<path d="M150.914 86.1077C152.217 89.6817 155.403 89.4166 158.978 88.1139C162.552 86.8113 162.731 84.8726 161.427 81.2974C160.124 77.7234 158.601 75.9721 155.027 77.2747C154.177 77.5846 153.396 78.0588 152.729 78.6704C152.063 79.282 151.523 80.019 151.141 80.8392C150.759 81.6595 150.542 82.5469 150.503 83.4509C150.465 84.3549 150.604 85.2577 150.914 86.1077Z" fill="#FFBF00"/>
<path d="M8.06706 19.0749C4.46759 17.8423 2.67168 20.4871 1.43914 24.0866C0.206606 27.6861 1.60229 29.0435 5.20176 30.276C8.80123 31.5086 11.121 31.4232 12.3523 27.8237C12.944 26.0953 12.825 24.2026 12.0214 22.5619C11.2178 20.9212 9.79539 19.6669 8.06706 19.0749Z" fill="#7BB5FB"/>
<path d="M11.4091 66.0046V72.802M11.4091 79.6008V86.3982M8.00972 76.2014H1.21228M21.6059 76.2014H14.8084M149.381 1V7.19073M149.381 16.4775V22.6682M144.737 11.8341H138.547M160.215 11.8341H154.023M171.484 57.7197C172.836 57.7197 174.133 57.1825 175.089 56.2264C176.045 55.2703 176.582 53.9735 176.582 52.6213C176.582 51.2691 176.045 49.9723 175.089 49.0162C174.133 48.06 172.836 47.5229 171.484 47.5229C170.131 47.5229 168.835 48.06 167.878 49.0162C166.922 49.9723 166.385 51.2691 166.385 52.6213C166.385 53.9735 166.922 55.2703 167.878 56.2264C168.835 57.1825 170.131 57.7197 171.484 57.7197Z" stroke="#0F0E1A" stroke-width="1.5" stroke-miterlimit="10" stroke-linecap="round" stroke-linejoin="round"/>
<path d="M63.8767 51.3542C63.8767 51.3542 69.2925 31.4947 85.5411 15.2474C99.2812 1.50717 118.186 3.25974 123.692 4.12774C124.158 4.19827 124.589 4.41593 124.922 4.74892C125.256 5.0819 125.474 5.51275 125.544 5.97846C126.412 11.486 128.166 30.3922 114.425 44.1323C98.1774 60.3797 78.3179 65.7954 78.3179 65.7954M63.8767 51.3542L45.8232 44.1323L54.4166 35.5415C55.8505 34.1072 57.7953 33.3012 59.8234 33.3008H71.0986M63.8767 51.3542L78.3179 65.7954M78.3179 65.7954L85.5411 83.8489L94.1319 75.2555C95.5662 73.8217 96.3722 71.8768 96.3726 69.8487V58.5748M76.5143 49.5481L68.39 41.4238M80.124 53.1578L88.2483 61.2821M58.4609 63.9893L45.8245 76.627M65.6828 71.2112L62.0718 74.8222M81.9301 44.1323L63.8767 65.7954L85.5398 47.7433L81.9301 44.1323ZM107.204 33.3008C106.493 34.0137 105.649 34.5795 104.719 34.9658C103.79 35.3521 102.793 35.5513 101.786 35.5521C100.779 35.5528 99.7822 35.3551 98.852 34.9702C97.9217 34.5852 97.0765 34.0207 96.3646 33.3088C95.6527 32.5969 95.0881 31.7517 94.7032 30.8214C94.3183 29.8911 94.1205 28.8941 94.1213 27.8874C94.122 26.8806 94.3213 25.8839 94.7076 24.9542C95.0939 24.0245 95.6597 23.1801 96.3726 22.4692C97.8097 21.0364 99.7567 20.2325 101.786 20.234C103.815 20.2355 105.761 21.0423 107.196 22.4772C108.631 23.9122 109.438 25.858 109.439 27.8874C109.441 29.9167 108.637 31.8637 107.204 33.3008Z" stroke="#0F0E1A" stroke-width="1.5" stroke-linecap="round" stroke-linejoin="round"/>
<defs>
<linearGradient id="paint0_linear_82_307" x1="160.496" y1="55.0402" x2="173.164" y2="55.0402" gradientUnits="userSpaceOnUse">
<stop stop-color="#439FF5"/>
<stop offset="1" stop-color="#C384DC"/>
</linearGradient>
</defs>
</svg>
