<svg width="197" height="93" viewBox="0 0 197 93" fill="none" xmlns="http://www.w3.org/2000/svg">
<path d="M127.315 39.0442H77.9502C74.1636 39.0442 71.094 42.1138 71.094 45.9004V73.3254C71.094 77.112 74.1636 80.1816 77.9502 80.1816H127.315C131.102 80.1816 134.171 77.112 134.171 73.3254V45.9004C134.171 42.1138 131.102 39.0442 127.315 39.0442Z" fill="#CAD6E1"/>
<path fill-rule="evenodd" clip-rule="evenodd" d="M76.7175 44.7621V26.3777C76.7175 24.2331 77.9009 23.5585 79.7946 22.9647L99.5557 17.115C101.901 16.369 103.354 16.4101 105.71 17.115L125.471 22.9647C127.333 23.5489 128.617 24.2454 128.617 26.3791V44.6921C128.617 58.72 116.281 69.5419 104.54 76.3748C103.941 76.7236 103.259 76.9069 102.566 76.9059C101.872 76.905 101.191 76.7198 100.592 76.3694C88.9093 69.5529 76.7175 59.3316 76.7175 44.7621ZM102.634 54.9285V44.9705C100.289 43.9146 97.1628 42.808 97.1628 39.7474C97.1628 36.9939 100.095 35.0824 102.634 35.0824V44.9705C104.897 46.0552 108.103 47.266 108.103 50.2635C108.103 53.0266 105.119 54.9285 102.634 54.9285Z" fill="white"/>
<path d="M102.633 44.9706V35.0825C100.095 35.0825 97.1628 36.994 97.1628 39.7475C97.1628 42.8081 100.289 43.9147 102.634 44.972L102.633 44.9706Z" fill="white"/>
<path d="M102.633 44.9707V54.9287C105.118 54.9287 108.104 53.0268 108.104 50.2637C108.104 47.2662 104.895 46.0554 102.633 44.9707Z" fill="white"/>
<path d="M21.5236 74.9363C22.9263 78.7813 26.3545 78.4975 30.1994 77.0947C34.0458 75.6933 34.2364 73.6076 32.835 69.7626C31.4322 65.9163 29.7936 64.0322 25.9486 65.435C24.1019 66.1082 22.5982 67.4874 21.7683 69.2692C20.9385 71.0511 20.8505 73.0896 21.5236 74.9363Z" fill="url(#paint0_linear_82_270)"/>
<path d="M183.483 71.4138C184.404 75.7935 189.83 76.4051 192.529 75.8388C199.668 74.3359 197.723 63.4976 190.472 63.4976C187.658 63.4976 182.56 67.0354 183.483 71.4138Z" fill="#7BB5FB"/>
<path d="M42.7627 0.89719C38.8903 -0.428807 36.9568 2.41653 35.6322 6.28894C34.3048 10.1613 35.8077 11.6217 39.6801 12.9477C43.5525 14.2737 46.0468 14.1818 47.3728 10.3094C48.0094 8.44995 47.8814 6.41374 47.0168 4.64865C46.1523 2.88356 44.6221 1.53414 42.7627 0.89719Z" fill="#FFBF00"/>
<path d="M176.68 7.50537V15.7329M176.68 23.9604V32.1878M172.567 19.8466H164.339M189.022 19.8466H180.794M10.5987 31.52V37.005M10.5987 45.2325V50.7175M6.485 41.1188H1M20.1975 41.1188H14.7125M23.1004 81.5528C24.5551 81.5528 25.9503 80.9749 26.9789 79.9463C28.0075 78.9176 28.5854 77.5225 28.5854 76.0678C28.5854 74.6131 28.0075 73.218 26.9789 72.1893C25.9503 71.1607 24.5551 70.5828 23.1004 70.5828C21.6457 70.5828 20.2506 71.1607 19.2219 72.1893C18.1933 73.218 17.6154 74.6131 17.6154 76.0678C17.6154 77.5225 18.1933 78.9176 19.2219 79.9463C20.2506 80.9749 21.6457 81.5528 23.1004 81.5528Z" stroke="#0F0E1A" stroke-width="1.5" stroke-miterlimit="10" stroke-linecap="round" stroke-linejoin="round"/>
<path d="M73.2992 30.4863H72.4339C70.1064 30.4863 67.8742 31.4109 66.2284 33.0568C64.5825 34.7026 63.6579 36.9348 63.6579 39.2623V82.9229M141.608 82.9229V39.2637C141.608 36.9362 140.683 34.7039 139.037 33.0581C137.392 31.4123 135.159 30.4877 132.832 30.4877H132.035M148.649 91.8374H56.6152C54.0894 91.6646 51.99 89.6818 51.8967 87.1024V86.9626H90.3465C91.0322 86.9626 91.6904 87.2396 92.1703 87.7291C92.4087 87.9716 92.693 88.1643 93.0065 88.2959C93.3201 88.4274 93.6567 88.4954 93.9968 88.4956H111.269C111.955 88.4956 112.613 88.2186 113.094 87.7277C113.333 87.4856 113.617 87.2933 113.931 87.1619C114.244 87.0306 114.581 86.9628 114.921 86.9626H153.369C153.277 89.5117 151.138 91.5659 148.649 91.8374Z" stroke="#0F0E1A" stroke-width="1.5" stroke-linecap="round" stroke-linejoin="round"/>
<path d="M75.2078 19.5831C75.2078 16.6994 77.5456 14.3616 80.4296 14.3616H125.187C128.07 14.3616 130.408 16.6994 130.408 19.5831V64.3401C130.408 67.224 128.07 69.5619 125.187 69.5619H80.4296C77.5456 69.5619 75.2078 67.224 75.2078 64.3401V19.5831Z" fill="white" stroke="#0F0E1A" stroke-width="1.5"/>
<path d="M87.938 46.0545H117.68M93.8275 49.5881H111.79M113.064 40.5429H92.5503C92.2041 40.5429 91.872 40.4054 91.6272 40.1606C91.3824 39.9157 91.2449 39.5837 91.2449 39.2375C91.2449 38.8913 91.3824 38.5593 91.6272 38.3145C91.872 38.0697 92.2041 37.9321 92.5503 37.9321H113.064C113.41 37.9321 113.742 38.0697 113.987 38.3145C114.232 38.5593 114.369 38.8913 114.369 39.2375C114.369 39.5837 114.232 39.9157 113.987 40.1606C113.742 40.4054 113.41 40.5429 113.064 40.5429Z" stroke="#0F0E1A" stroke-width="0.5" stroke-linecap="round"/>
<path d="M103.298 57.95H99.7076C99.1883 57.95 98.6902 58.1562 98.323 58.5235C97.9558 58.8907 97.7495 59.3887 97.7495 59.908C97.7495 60.4273 97.9558 60.9254 98.323 61.2926C98.6902 61.6598 99.1883 61.8661 99.7076 61.8661H103.298C103.371 61.8661 103.444 61.862 103.515 61.8542C103.241 61.6095 103.022 61.3096 102.872 60.9742C102.722 60.6387 102.644 60.2753 102.645 59.9079C102.644 59.5404 102.722 59.1771 102.872 58.8417C103.022 58.5063 103.241 58.2065 103.515 57.9619C103.443 57.9539 103.37 57.95 103.298 57.95Z" fill="url(#paint1_linear_82_270)"/>
<path d="M105.102 62.3846C106.494 62.0954 107.233 60.5699 106.986 59.3797C106.739 58.1894 105.821 57.2494 104.429 57.5386C103.037 57.8278 102.415 58.9986 102.662 60.1889C102.909 61.3792 103.71 62.6738 105.102 62.3846Z" fill="url(#paint2_linear_82_270)"/>
<path d="M103.515 57.9614C103.241 58.206 103.022 58.5059 102.872 58.8413C102.722 59.1767 102.644 59.54 102.645 59.9074C102.644 60.2749 102.722 60.6383 102.872 60.9738C103.022 61.3092 103.241 61.6091 103.515 61.8537M103.515 57.9614C103.891 57.6255 104.356 57.4055 104.854 57.328C105.352 57.2504 105.861 57.3186 106.321 57.5244C106.781 57.7301 107.172 58.0646 107.446 58.4875C107.72 58.9103 107.866 59.4035 107.866 59.9074C107.866 60.4114 107.72 60.9046 107.446 61.3275C107.172 61.7504 106.782 62.0849 106.322 62.2907C105.862 62.4965 105.352 62.5647 104.854 62.4872C104.356 62.4097 103.891 62.1897 103.515 61.8537M103.515 57.9614C103.443 57.9535 103.37 57.9495 103.298 57.9495H99.7076C99.1883 57.9495 98.6902 58.1558 98.323 58.523C97.9558 58.8902 97.7495 59.3883 97.7495 59.9076C97.7495 60.4269 97.9558 60.9249 98.323 61.2921C98.6902 61.6594 99.1883 61.8656 99.7076 61.8656H103.298C103.371 61.8656 103.444 61.8616 103.515 61.8537" stroke="#0F0E1A" stroke-width="0.5"/>
<defs>
<linearGradient id="paint0_linear_82_270" x1="21.0754" y1="71.5104" x2="33.6333" y2="71.5104" gradientUnits="userSpaceOnUse">
<stop stop-color="#439FF5"/>
<stop offset="1" stop-color="#C384DC"/>
</linearGradient>
<linearGradient id="paint1_linear_82_270" x1="97.7495" y1="59.908" x2="103.515" y2="59.908" gradientUnits="userSpaceOnUse">
<stop stop-color="#439FF5"/>
<stop offset="1" stop-color="#C384DC"/>
</linearGradient>
<linearGradient id="paint2_linear_82_270" x1="102.609" y1="59.9557" x2="107.033" y2="59.9557" gradientUnits="userSpaceOnUse">
<stop stop-color="#439FF5"/>
<stop offset="1" stop-color="#C384DC"/>
</linearGradient>
</defs>
</svg>
