<svg width="185" height="86" viewBox="0 0 185 86" fill="none" xmlns="http://www.w3.org/2000/svg">
<path d="M105.531 17.7662C101.333 13.119 95.1254 8.64771 86.764 8.64771C78.4026 8.64771 72.194 13.119 67.9968 17.7662C66.1422 19.8208 68.7743 22.1126 71.2445 20.8635C81.2118 15.8224 92.3174 15.8224 102.284 20.8635C104.752 22.1126 107.386 19.8208 105.531 17.7662Z" fill="url(#paint0_linear_82_292)"/>
<path d="M96.3235 51.9839H77.2045C72.9808 51.9839 69.5569 55.4078 69.5569 59.6315V69.8283C69.5569 74.0519 72.9808 77.4759 77.2045 77.4759H96.3235C100.547 77.4759 103.971 74.0519 103.971 69.8283V59.6315C103.971 55.4078 100.547 51.9839 96.3235 51.9839Z" fill="#FFDDBF"/>
<path d="M114.168 85.1236C122.615 85.1236 129.463 78.2757 129.463 69.8284C129.463 61.3811 122.615 54.5332 114.168 54.5332C105.721 54.5332 98.8728 61.3811 98.8728 69.8284C98.8728 78.2757 105.721 85.1236 114.168 85.1236Z" fill="url(#paint1_linear_82_292)"/>
<path d="M171.586 69.3263C172.444 73.3974 177.487 73.9658 179.996 73.4394C186.631 72.0425 184.824 61.968 178.084 61.968C175.468 61.968 170.729 65.2565 171.586 69.3263Z" fill="#FFBF00"/>
<path d="M22.2056 21.6166C23.5095 25.1906 26.696 24.9268 30.27 23.6228C33.844 22.3202 34.0224 20.3815 32.7198 16.8076C31.4159 13.2323 29.894 11.481 26.3187 12.7849C24.6022 13.4107 23.2045 14.6927 22.4331 16.3489C21.6618 18.0052 21.5799 19.9 22.2056 21.6166Z" fill="url(#paint2_linear_82_292)"/>
<path d="M35.5836 71.6703C31.9842 70.4378 30.187 73.0826 28.9557 76.682C27.7219 80.2815 29.1176 81.6377 32.7171 82.8702C36.3178 84.1028 38.6363 84.0186 39.8689 80.4192C40.4606 78.6907 40.3416 76.798 39.538 75.1574C38.7344 73.5167 37.312 72.2624 35.5836 71.6703Z" fill="#FFDDBF"/>
<path d="M158.53 9.28491V16.9325M158.53 24.5801V32.2277M154.707 20.7563H147.059M170.002 20.7563H162.354M9.9222 41.1499V46.2483M9.9222 53.8959V58.9943M6.0984 50.0721H1M18.8444 50.0721H13.746M173.549 70.4657C174.901 70.4657 176.198 69.9286 177.154 68.9724C178.11 68.0163 178.647 66.7195 178.647 65.3673C178.647 64.0151 178.11 62.7183 177.154 61.7622C176.198 60.8061 174.901 60.2689 173.549 60.2689C172.197 60.2689 170.9 60.8061 169.944 61.7622C168.988 62.7183 168.451 64.0151 168.451 65.3673C168.451 66.7195 168.988 68.0163 169.944 68.9724C170.9 69.9286 172.197 70.4657 173.549 70.4657ZM22.3967 20.119C23.7489 20.119 25.0457 19.5819 26.0018 18.6257C26.958 17.6696 27.4951 16.3728 27.4951 15.0206C27.4951 13.6684 26.958 12.3716 26.0018 11.4155C25.0457 10.4594 23.7489 9.92221 22.3967 9.92221C21.0445 9.92221 19.7477 10.4594 18.7916 11.4155C17.8355 12.3716 17.2983 13.6684 17.2983 15.0206C17.2983 16.3728 17.8355 17.6696 18.7916 18.6257C19.7477 19.5819 21.0445 20.119 22.3967 20.119Z" stroke="#0F0E1A" stroke-width="1.5" stroke-miterlimit="10" stroke-linecap="round" stroke-linejoin="round"/>
<path d="M73.544 44.2738V38.0474C73.544 28.9914 79.0107 23.8802 86.6685 23.8802C94.3263 23.8802 99.7931 29.0424 99.7931 38.0474V44.2738M86.6685 64.7732V57.0198M70.2644 18.7818C79.4211 10.3937 93.9388 10.2943 103.074 18.7818M62.4524 10.4969C75.8599 -2.10886 97.5001 -2.2223 110.887 10.4969M107.668 70.1469L111.482 73.9108C111.722 74.1474 112.046 74.2795 112.382 74.2783C112.719 74.2771 113.042 74.1427 113.28 73.9044L120.86 66.3231M108.543 51.9877C108.543 47.7637 105.118 44.2738 100.896 44.2738H72.4427C70.4144 44.2738 68.4692 45.0796 67.035 46.5138C65.6008 47.948 64.7951 49.8932 64.7951 51.9214V69.7658C64.7951 71.7941 65.6008 73.7393 67.035 75.1735C68.4692 76.6077 70.4144 77.4134 72.4427 77.4134H96.655M129.463 69.7008C129.463 77.9934 122.508 85.1235 114.168 85.1235C105.762 85.1235 98.8728 78.0877 98.8728 69.7008C98.8728 61.2681 105.777 54.5331 114.168 54.5331C122.457 54.5331 129.463 61.3649 129.463 69.7008Z" stroke="#0F0E1A" stroke-width="1.5" stroke-linecap="round" stroke-linejoin="round"/>
<defs>
<linearGradient id="paint0_linear_82_292" x1="67.3723" y1="14.933" x2="106.155" y2="14.933" gradientUnits="userSpaceOnUse">
<stop stop-color="#439FF5"/>
<stop offset="1" stop-color="#C384DC"/>
</linearGradient>
<linearGradient id="paint1_linear_82_292" x1="98.8728" y1="69.8284" x2="129.463" y2="69.8284" gradientUnits="userSpaceOnUse">
<stop stop-color="#439FF5"/>
<stop offset="1" stop-color="#C384DC"/>
</linearGradient>
<linearGradient id="paint2_linear_82_292" x1="21.7891" y1="18.4321" x2="33.4615" y2="18.4321" gradientUnits="userSpaceOnUse">
<stop stop-color="#439FF5"/>
<stop offset="1" stop-color="#C384DC"/>
</linearGradient>
</defs>
</svg>
