<svg width="137" height="30" viewBox="0 0 137 30" fill="none" xmlns="http://www.w3.org/2000/svg">
<path d="M65.24 8.28546C66.0619 8.28546 66.8266 8.44564 67.5343 8.76601C68.2649 9.06349 68.8927 9.48683 69.4178 10.036C69.9657 10.5623 70.388 11.1802 70.6848 11.8896C71.0044 12.5989 71.1642 13.3655 71.1642 14.1893V18.1367C71.1642 18.7545 71.0386 19.3381 70.7875 19.8873C70.5592 20.4365 70.2282 20.917 69.7944 21.3289C69.3835 21.7408 68.9041 22.0726 68.3562 22.3243C67.8083 22.5532 67.2261 22.6676 66.6098 22.6676H62.7402C61.8499 22.6676 61.028 22.4845 60.2746 22.1184C59.5441 21.7294 58.9277 21.2259 58.4255 20.6081C57.9232 19.9902 57.5579 19.2809 57.3297 18.4799C57.1014 17.6561 57.0671 16.8095 57.2269 15.9399L57.7406 13.1253H56.1311C55.7658 13.1253 55.4462 13.2511 55.1723 13.5028C54.8983 13.7546 54.7614 14.0749 54.7614 14.4639L54.7613 29.7042H50.5493L50.5494 14.7042C50.5494 13.8118 50.7092 12.9765 51.0288 12.1985C51.3712 11.4205 51.8278 10.7454 52.3985 10.1733C52.9921 9.57836 53.677 9.1207 54.4532 8.80033C55.2294 8.45708 56.0626 8.28546 56.953 8.28546H65.24ZM66.918 17.6905V14.155C66.9408 13.8804 66.838 13.6401 66.6098 13.4342C66.4043 13.2282 66.1646 13.1253 65.8906 13.1253H62.1238L61.4047 16.7294C61.359 16.9811 61.4161 17.2099 61.5759 17.4159C61.7357 17.5989 61.9412 17.6905 62.1923 17.6905H66.918Z" fill="url(#paint0_linear_172_501)"/>
<path d="M78.636 21.8953H76.5129L74.5 20L74.3898 0L78.636 2.31014V21.8953Z" fill="url(#paint1_linear_172_501)"/>
<path d="M86.5386 14.155L86.5386 14.9445C86.5386 15.2877 86.6756 15.5738 86.9495 15.8026C87.2235 16.0086 87.5317 16.1115 87.8741 16.1115H90.0657C90.3853 16.1115 90.5451 16.2717 90.5451 16.5921V20.6424C90.5451 20.9628 90.3853 21.123 90.0657 21.123H88.559C88.2166 21.123 87.8513 21.0543 87.4632 20.917C87.0751 20.7568 86.7555 20.5166 86.5044 20.1962V20.7797C86.5044 21.6722 86.573 23.9491 86.2763 24.7271C85.9795 25.5051 85.5251 26.3593 85 27C84.4978 27.6407 83.8928 28.2014 83.1851 28.6819C82.4774 29.1853 81.5585 29.7042 80.5707 29.7042H75.6317L74.3304 25.7225H79.8042C80.626 25.4708 81.2767 24.9903 81.7561 24.2809C82.2583 23.5715 82.2924 21.3404 82.2924 20.4708L82 11.3404L86.5386 14.155Z" fill="url(#paint2_linear_172_501)"/>
<path d="M124.766 16.1115C124.88 16.1115 124.982 16.1573 125.074 16.2488C125.188 16.3175 125.245 16.4319 125.245 16.5921V20.6424C125.245 20.7797 125.188 20.8941 125.074 20.9857C124.982 21.0772 124.88 21.123 124.766 21.123H123.088C122.289 21.123 121.524 20.9857 120.793 20.7111C120.086 20.4136 119.458 19.9674 118.91 19.3724C118.339 19.9674 117.688 20.4136 116.958 20.7111C116.227 20.9857 115.463 21.123 114.664 21.123H113.02C112.7 21.123 112.54 20.9628 112.54 20.6424V16.5921C112.54 16.2717 112.7 16.1115 113.02 16.1115H115.417C115.805 16.1115 116.125 15.9857 116.376 15.734C116.65 15.4594 116.787 15.1275 116.787 14.7385V0.128229L121.033 2.31017V14.9102C121.079 15.2534 121.227 15.5394 121.478 15.7683C121.729 15.9971 122.037 16.1115 122.403 16.1115H124.766Z" fill="url(#paint3_linear_172_501)"/>
<path d="M131.127 16.1115C131.515 16.1115 131.835 15.9857 132.086 15.734C132.36 15.4594 132.497 15.1275 132.497 14.7385V7.32437H136.743V14.7042C136.743 15.5967 136.572 16.4319 136.229 17.2099C135.91 17.988 135.453 18.6745 134.86 19.2694C134.289 19.8415 133.616 20.2992 132.839 20.6424C132.063 20.9628 131.23 21.123 130.34 21.123H124.758C124.621 21.123 124.507 21.0772 124.415 20.9857C124.324 20.8713 124.278 20.7568 124.278 20.6424V16.6607C124.278 16.5234 124.324 16.3976 124.415 16.2832C124.507 16.1687 124.621 16.1115 124.758 16.1115H131.127ZM125.777 5.28863H136.743L134.86 2.31017H123.86L125.777 5.28863Z" fill="url(#paint4_linear_172_501)"/>
<path fill-rule="evenodd" clip-rule="evenodd" d="M98.3237 2.31017L83.5 2.31014L85.6483 5.28863H100.143L98.3237 2.31017ZM109.628 15.6996C109.377 15.425 109.251 15.0932 109.251 14.7042V12.6447C109.251 11.8209 109.092 11.0543 108.772 10.3449C108.475 9.61269 108.053 8.9834 107.505 8.45709C106.98 7.90789 106.364 7.48455 105.656 7.18707C104.948 6.8667 104.183 6.70652 103.361 6.70652H92.2776H85.6483L83.2286 9.5L86.5477 11.3404H103.807C104.126 11.3404 104.4 11.4662 104.629 11.7179C104.88 11.9468 105.005 12.2328 105.005 12.5761V15.0131C105.005 15.3335 104.891 15.5967 104.663 15.8026C104.457 16.0086 104.229 16.1115 103.978 16.1115H90.0657C89.9059 16.1115 89.7915 16.1687 89.723 16.2832C89.6317 16.3747 89.586 16.4777 89.586 16.5921V20.6424C89.586 20.9628 89.7461 21.123 90.0657 21.123H103.19C103.944 21.123 104.663 20.9857 105.348 20.7111C106.055 20.4365 106.683 20.0703 107.231 19.6127C107.802 20.0703 108.43 20.4365 109.114 20.7111C109.822 20.9857 110.564 21.123 111.34 21.123H113.018C113.155 21.123 113.269 21.0772 113.361 20.9857C113.475 20.8941 113.532 20.7797 113.532 20.6424L113.498 16.5921C113.498 16.4777 113.452 16.3747 113.361 16.2832C113.269 16.1687 113.155 16.1115 113.018 16.1115H110.621C110.233 16.1115 109.902 15.9742 109.628 15.6996Z" fill="url(#paint5_linear_172_501)"/>
<path d="M11.9859 12.507C11.9859 6.61117 11.9859 3.66323 13.8175 1.83161C15.6491 0 18.5971 0 24.493 0H31.2676C37.1635 0 40.1114 0 41.943 1.83161C43.7746 3.66323 43.7746 6.61117 43.7746 12.507V17.1972C43.7746 23.0931 43.7746 26.041 41.943 27.8726C40.1114 29.7042 37.1635 29.7042 31.2676 29.7042H24.493C18.5971 29.7042 15.6491 29.7042 13.8175 27.8726C11.9859 26.041 11.9859 23.0931 11.9859 17.1972V12.507Z" fill="url(#paint6_linear_172_501)"/>
<path d="M0 4.16901H13.0282V10.4225H5.21127C2.33316 10.4225 0 8.08937 0 5.21127V4.16901Z" fill="url(#paint7_linear_172_501)"/>
<path d="M3.12676 11.9859H16.1549V18.2394H8.33803C5.45992 18.2394 3.12676 15.9063 3.12676 13.0282V11.9859Z" fill="url(#paint8_linear_172_501)"/>
<path d="M7.29577 19.8028H20.3239V26.0563H12.507C9.62894 26.0563 7.29577 23.7232 7.29577 20.8451V19.8028Z" fill="url(#paint9_linear_172_501)"/>
<path d="M27.1154 20.8451H18.2395V16.7696C18.2395 16.6192 18.2574 16.4606 18.2934 16.2939C18.3338 16.1232 18.3945 15.9544 18.4754 15.7878C18.5562 15.6211 18.6596 15.4625 18.7854 15.3121C18.9157 15.1617 19.0707 15.0295 19.2504 14.9157C19.4346 14.7978 19.6458 14.7043 19.8839 14.6352C20.122 14.5661 20.3916 14.5315 20.6926 14.5315H24.642C24.8801 14.5315 25.0553 14.4787 25.1677 14.3729C25.2845 14.2632 25.3429 14.1046 25.3429 13.8973V11.6184C25.3429 11.4029 25.2845 11.2403 25.1677 11.1305C25.0509 11.0207 24.8801 10.9658 24.6555 10.9658H19.028V9.38028H24.6555C24.952 9.38028 25.2193 9.41484 25.4575 9.48395C25.6956 9.55307 25.9045 9.64657 26.0842 9.76447C26.2685 9.87831 26.4257 10.0104 26.556 10.1609C26.6863 10.3113 26.7919 10.4698 26.8728 10.6365C26.9581 10.7992 27.0188 10.9658 27.0547 11.1366C27.0952 11.3033 27.1154 11.4598 27.1154 11.6062V13.8973C27.1154 14.3079 27.0323 14.6555 26.866 14.9401C26.7043 15.2206 26.4998 15.4503 26.2527 15.6292C26.0056 15.804 25.7383 15.9321 25.4507 16.0134C25.1677 16.0906 24.9026 16.1293 24.6555 16.1293H20.6926C20.5489 16.1293 20.4343 16.1476 20.3489 16.1841C20.2636 16.2207 20.1962 16.2695 20.1467 16.3305C20.1018 16.3915 20.0681 16.4606 20.0457 16.5379C20.0232 16.6151 20.0052 16.6923 19.9917 16.7696V19.2595H27.1154V20.8451Z" fill="white"/>
<path d="M37.5212 20.8451H35.7554V16.1293H29.5281C29.4023 16.1293 29.2855 16.1089 29.1777 16.0683C29.0698 16.0236 28.9755 15.9666 28.8946 15.8975C28.8182 15.8243 28.7576 15.739 28.7126 15.6414C28.6677 15.5438 28.6452 15.4402 28.6452 15.3304V9.38028H30.3975V14.5315H35.7554V9.38028H37.5212V20.8451Z" fill="white"/>
<defs>
<linearGradient id="paint0_linear_172_501" x1="63.5682" y1="4.24346" x2="73.9004" y2="43.9852" gradientUnits="userSpaceOnUse">
<stop stop-color="#A18CE3"/>
<stop offset="1" stop-color="#0B72E1"/>
</linearGradient>
<linearGradient id="paint1_linear_172_501" x1="63.5682" y1="4.24346" x2="73.9004" y2="43.9852" gradientUnits="userSpaceOnUse">
<stop stop-color="#A18CE3"/>
<stop offset="1" stop-color="#0B72E1"/>
</linearGradient>
<linearGradient id="paint2_linear_172_501" x1="63.5682" y1="4.24346" x2="73.9004" y2="43.9852" gradientUnits="userSpaceOnUse">
<stop stop-color="#A18CE3"/>
<stop offset="1" stop-color="#0B72E1"/>
</linearGradient>
<linearGradient id="paint3_linear_172_501" x1="63.5682" y1="4.24346" x2="73.9004" y2="43.9852" gradientUnits="userSpaceOnUse">
<stop stop-color="#A18CE3"/>
<stop offset="1" stop-color="#0B72E1"/>
</linearGradient>
<linearGradient id="paint4_linear_172_501" x1="63.5682" y1="4.24346" x2="73.9004" y2="43.9852" gradientUnits="userSpaceOnUse">
<stop stop-color="#A18CE3"/>
<stop offset="1" stop-color="#0B72E1"/>
</linearGradient>
<linearGradient id="paint5_linear_172_501" x1="63.5682" y1="4.24346" x2="73.9004" y2="43.9852" gradientUnits="userSpaceOnUse">
<stop stop-color="#A18CE3"/>
<stop offset="1" stop-color="#0B72E1"/>
</linearGradient>
<linearGradient id="paint6_linear_172_501" x1="6.6118" y1="4.24346" x2="23.8215" y2="37.8614" gradientUnits="userSpaceOnUse">
<stop stop-color="#A18CE3"/>
<stop offset="1" stop-color="#0B72E1"/>
</linearGradient>
<linearGradient id="paint7_linear_172_501" x1="6.6118" y1="4.24346" x2="23.8215" y2="37.8614" gradientUnits="userSpaceOnUse">
<stop stop-color="#A18CE3"/>
<stop offset="1" stop-color="#0B72E1"/>
</linearGradient>
<linearGradient id="paint8_linear_172_501" x1="6.6118" y1="4.24346" x2="23.8215" y2="37.8614" gradientUnits="userSpaceOnUse">
<stop stop-color="#A18CE3"/>
<stop offset="1" stop-color="#0B72E1"/>
</linearGradient>
<linearGradient id="paint9_linear_172_501" x1="6.6118" y1="4.24346" x2="23.8215" y2="37.8614" gradientUnits="userSpaceOnUse">
<stop stop-color="#A18CE3"/>
<stop offset="1" stop-color="#0B72E1"/>
</linearGradient>
</defs>
</svg>
