<svg width="115" height="18" viewBox="0 0 115 18" fill="none" xmlns="http://www.w3.org/2000/svg">
<path d="M9.69081 0.699219H29.5924L20.0557 11.4253H15.1309L21.3683 4.4258H6.39151L9.6776 0.716839" fill="#90A0AF"/>
<path d="M20.571 17.5702H0.647461L10.2062 6.84412H15.1309L8.8759 13.8612H23.8615L20.571 17.5702Z" fill="#90A0AF"/>
<path d="M42.4063 4.83546H33.9312L36.0412 2.48763H47.9081L38.4022 13.4383H47.2342L45.7012 15.7862H32.9005L42.4063 4.83546Z" fill="#90A0AF"/>
<path d="M52.7536 15.7862C51.7165 15.785 50.7222 15.3725 49.9889 14.6392C49.2556 13.9059 48.8431 12.9116 48.842 11.8746V6.3816C48.8431 5.34454 49.2556 4.35029 49.9889 3.61697C50.7222 2.88366 51.7165 2.47117 52.7536 2.47001H58.2289C58.743 2.46943 59.2521 2.57018 59.7272 2.76649C60.2023 2.96281 60.634 3.25084 60.9977 3.61413C61.3614 3.97741 61.6499 4.40882 61.8467 4.88368C62.0436 5.35854 62.1449 5.86755 62.1449 6.3816V11.8746C62.1449 12.912 61.7328 13.9069 60.9992 14.6405C60.2657 15.374 59.2707 15.7862 58.2333 15.7862H52.7536ZM51.1898 11.8746C51.1921 12.2878 51.3579 12.6833 51.6509 12.9746C51.9439 13.266 52.3404 13.4295 52.7536 13.4295H58.2289C58.6436 13.4295 59.0414 13.2648 59.3347 12.9715C59.6279 12.6782 59.7927 12.2805 59.7927 11.8658V6.3816C59.7927 5.96687 59.6279 5.56912 59.3347 5.27586C59.0414 4.9826 58.6436 4.81784 58.2289 4.81784H52.7536C52.3388 4.81784 51.9411 4.9826 51.6478 5.27586C51.3546 5.56912 51.1898 5.96687 51.1898 6.3816V11.8746Z" fill="#90A0AF"/>
<path d="M68.488 15.7862C67.4506 15.7862 66.4557 15.374 65.7221 14.6405C64.9886 13.9069 64.5764 12.912 64.5764 11.8746V6.3816C64.5764 5.34418 64.9886 4.34925 65.7221 3.61569C66.4557 2.88212 67.4506 2.47001 68.488 2.47001H73.9634C75.0012 2.47001 75.9966 2.88198 76.7309 3.61542C77.4651 4.34886 77.8782 5.34378 77.8794 6.3816V11.8746C77.8782 12.9116 77.4657 13.9059 76.7324 14.6392C75.9991 15.3725 75.0048 15.785 73.9678 15.7862H68.488ZM66.9243 11.8746C66.9266 12.2878 67.0924 12.6833 67.3854 12.9746C67.6784 13.266 68.0748 13.4295 68.488 13.4295H73.9634C74.3781 13.4295 74.7759 13.2648 75.0691 12.9715C75.3624 12.6782 75.5271 12.2805 75.5271 11.8658V6.3816C75.5271 5.96687 75.3624 5.56912 75.0691 5.27586C74.7759 4.9826 74.3781 4.81784 73.9634 4.81784H68.488C68.0733 4.81784 67.6755 4.9826 67.3823 5.27586C67.089 5.56912 66.9243 5.96687 66.9243 6.3816V11.8746Z" fill="#90A0AF"/>
<path d="M99.2434 2.48763H96.8955V15.7906H99.2434V2.48763Z" fill="#90A0AF"/>
<path d="M109.168 4.83546V15.7862H106.82V4.83546H101.345V2.48763H114.647V4.83546H109.168Z" fill="#90A0AF"/>
<path d="M91.9884 2.48763L87.372 6.97186L82.7512 2.48763H80.3285V15.7906H82.6764V5.52263L87.372 9.97603L92.0633 5.52263V15.7906H94.4111V2.48763H91.9884Z" fill="#90A0AF"/>
</svg>
