<svg width="75" height="63" viewBox="0 0 75 63" fill="none" xmlns="http://www.w3.org/2000/svg">
<path d="M74.0164 30.6488C72.557 33.2779 70.5724 34.8261 68.1791 35.907C66.9533 36.462 65.7566 37.1047 64.5308 37.7182C64.0055 37.9811 63.5385 38.2732 63.0131 38.5653C63.1591 38.8282 63.305 39.0912 63.4801 39.3541C64.239 39.2956 64.9978 39.2372 65.7858 39.1788C67.5662 39.0619 68.4418 40.026 67.9748 41.7787C67.1868 44.8168 65.3772 47.1538 62.4878 48.4099C59.5108 49.6953 57.351 51.7401 55.6582 54.4861C53.0022 58.8387 49.3831 62.1105 44.1296 62.8116C37.446 63.7172 31.959 61.351 28.048 55.8591C26.5595 53.7558 25.5963 51.2435 24.604 48.8189C23.7868 46.8617 23.7576 46.7448 21.8021 47.6212C14.5931 50.9222 7.53005 54.4569 0.963143 58.9264C0.729653 59.0724 0.46698 59.1893 0 59.4522C0.116745 57.5534 0.875584 56.122 1.83873 54.8366C3.96933 52.003 6.59609 49.666 9.68984 47.9717C13.5424 45.8392 17.5409 43.9404 21.5395 42.1C22.9696 41.4282 23.7284 40.6978 23.7868 39.0035C23.9911 31.4667 25.538 24.2513 28.8944 17.474C32.0465 11.1057 36.0158 5.40927 42.5244 1.96221C45.2095 0.5308 47.9822 -0.374788 51.0468 0.151036C55.4539 0.910558 58.4309 4.09471 59.394 8.79791C61.2036 17.7661 57.8764 24.9524 51.5138 30.9409C46.0851 36.0531 39.4598 39.4125 32.9513 42.918C30.6456 44.1741 30.4705 44.4078 31.1417 46.8909C32.5427 52.0322 37.2125 56.1804 42.0282 56.5602C45.2095 56.8231 47.9238 55.8007 50.0544 53.5513C51.8932 51.5649 53.5276 49.3739 55.162 47.2122C57.5845 43.9988 59.7735 40.581 62.4002 37.5429C65.3772 34.0374 69.3757 32.1386 74.0164 30.6488ZM29.3906 35.9654C29.303 38.2732 29.4197 38.3608 31.3169 37.5137C33.3015 36.6373 35.3154 35.7609 37.2417 34.7677C42.8162 31.8757 47.8655 28.2826 51.5429 23.0536C54.2864 19.1683 55.5123 14.8741 54.841 10.1125C54.2573 5.99352 51.3094 3.89022 47.2817 4.7958C42.5244 5.87666 39.0512 8.7979 36.4536 12.8292C31.8714 19.8986 30.0035 27.8444 29.3906 35.9654Z" fill="white"/>
</svg>
