<svg width="115" height="41" viewBox="0 0 115 41" fill="none" xmlns="http://www.w3.org/2000/svg">
<path d="M24.068 21.3273C24.068 24.537 20.5213 24.0523 20.5213 24.0523H6.45877C4.25983 24.0523 3.75739 22.3203 3.75739 20.7421V18.4072L0.0688477 21.3391V22.1548C0.0688477 26.1567 2.06681 27.6049 6.5297 27.6049H22.0582C25.0611 27.6049 27.7388 25.5537 27.7388 22.6159V14.9314L24.068 18.4545V21.3273Z" fill="#90A0AF"/>
<path d="M29.4176 27.6167H33.1534V10.4094L29.4176 13.9206V27.6167Z" fill="#90A0AF"/>
<path d="M37.3503 25.4828C37.3503 27.8472 36.0617 29.1477 33.6026 29.1477L36.0085 32.7594C37.3739 32.7594 41.1039 31.784 41.1039 25.1695V14.6477L37.3503 18.4072V25.4828Z" fill="#90A0AF"/>
<path d="M47.1628 27.6226H53.2985C53.9981 27.6584 54.6964 27.5294 55.337 27.246C55.9777 26.9626 56.5428 26.5328 56.987 25.9911C57.7845 24.9859 58.1918 23.7263 58.1338 22.4445V15.5285L54.3921 18.9924V21.4278C54.3921 23.1735 53.7615 24.0464 52.5005 24.0464H46.3529C46.3529 24.0464 46.3943 22.273 46.3943 21.2682V10.1316L42.6289 13.6487V23.2129C42.6289 26.1527 44.1402 27.6226 47.1628 27.6226Z" fill="#90A0AF"/>
<path d="M59.6707 27.6167H63.4124V10.2144L59.6707 13.5246V27.6167Z" fill="#90A0AF"/>
<path d="M61.3967 5.19582C55.858 5.19582 54.3921 8.92573 54.3921 10.2912L58.1161 12.6557C58.1161 10.1966 58.7367 8.96711 61.0716 8.96711H64.7424L68.5019 5.21355L61.3967 5.19582Z" fill="#90A0AF"/>
<path d="M12.7364 14.6536H3.72783V18.3954H16.2535L12.7364 14.6536Z" fill="#90A0AF"/>
<path d="M54.0906 33.8529L57.2294 30.8974C57.1939 30.8501 57.1703 30.8028 57.1348 30.7614C56.6906 30.2197 56.1254 29.7899 55.4848 29.5065C54.8441 29.2232 54.1459 29.0942 53.4463 29.1299H43.1609L46.9618 32.6766H52.2049C52.5929 32.6979 52.9692 32.8169 53.2989 33.0225C53.6285 33.2282 53.9009 33.5138 54.0906 33.8529Z" fill="#90A0AF"/>
<path d="M49.6868 33.2736H52.0513C52.3759 33.2936 52.6907 33.393 52.9679 33.563C53.2452 33.7331 53.4764 33.9686 53.6413 34.249L52.2049 35.6972L49.6868 33.2736Z" fill="#90A0AF"/>
<path d="M91.1001 1.4659L87.3998 0.496473C85.7968 0.0709481 84.0904 0.299582 82.656 1.13209C81.2215 1.96459 80.1765 3.33278 79.7508 4.93573L78.8168 8.44102C81.873 4.63583 86.2665 2.14093 91.1001 1.4659Z" fill="#90A0AF"/>
<path d="M74.8091 23.5321L73.8988 26.9606C73.4732 28.5636 73.7019 30.2699 74.5344 31.7044C75.3669 33.1388 76.7351 34.1838 78.338 34.6096L81.8847 35.5553C78.0989 32.5793 75.5727 28.2867 74.8091 23.5321Z" fill="#90A0AF"/>
<path d="M109.425 6.34257L105.441 5.28448C107.451 6.83076 109.134 8.76089 110.392 10.9628C111.65 13.1648 112.459 15.5947 112.77 18.1116L113.864 13.9738C114.284 12.3733 114.053 10.6715 113.221 9.24114C112.389 7.81079 111.024 6.7685 109.425 6.34257Z" fill="#90A0AF"/>
<path d="M96.5561 39.4508L100.369 40.4793C101.972 40.9048 103.678 40.6762 105.113 39.8437C106.547 39.0112 107.592 37.643 108.018 36.0401L109.094 31.9968C106.06 36.0369 101.554 38.7158 96.5561 39.4508Z" fill="#90A0AF"/>
<path d="M93.8843 2.96732C90.4202 2.96732 87.0339 3.99454 84.1536 5.91907C81.2734 7.84361 79.0285 10.579 77.7028 13.7794C76.3772 16.9798 76.0303 20.5014 76.7062 23.8989C77.382 27.2964 79.0501 30.4172 81.4995 32.8667C83.949 35.3162 87.0698 36.9843 90.4673 37.6601C93.8648 38.3359 97.3864 37.9891 100.587 36.6634C103.787 35.3378 106.523 33.0929 108.447 30.2126C110.372 27.3323 111.399 23.946 111.399 20.482C111.399 15.8368 109.554 11.3819 106.269 8.09725C102.984 4.81261 98.5294 2.96732 93.8843 2.96732ZM83.9654 11.704C84.1527 10.7329 84.6237 9.83921 85.3188 9.13581C86.0139 8.43241 86.902 7.95091 87.8708 7.75218C88.8396 7.55345 89.8455 7.64641 90.7614 8.01931C91.6774 8.39222 92.4622 9.02832 93.0166 9.8472C93.5711 10.6661 93.8703 11.631 93.8764 12.6199C93.8826 13.6088 93.5954 14.5773 93.0511 15.403C92.5069 16.2288 91.7301 16.8746 90.8188 17.2588C89.9076 17.6431 88.9029 17.7486 87.9318 17.5619C87.2866 17.4379 86.6722 17.1879 86.1236 16.8264C85.5751 16.4648 85.1032 15.9987 84.7348 15.4547C84.3665 14.9107 84.1089 14.2995 83.9769 13.6559C83.8449 13.0123 83.841 12.349 83.9654 11.704ZM91.242 26.8364C91.0536 27.807 90.5819 28.6999 89.8862 29.4024C89.1906 30.1049 88.3023 30.5855 87.3337 30.7833C86.3651 30.9812 85.3595 30.8876 84.4441 30.5142C83.5287 30.1408 82.7445 29.5044 82.1906 28.6856C81.6367 27.8667 81.3379 26.902 81.3321 25.9133C81.3262 24.9247 81.6135 23.9565 82.1577 23.1311C82.7019 22.3057 83.4785 21.6602 84.3894 21.276C85.3003 20.8918 86.3047 20.7862 87.2756 20.9726C87.9214 21.0966 88.5364 21.3467 89.0854 21.7086C89.6343 22.0706 90.1066 22.5372 90.475 23.0819C90.8434 23.6266 91.1008 24.2385 91.2324 24.8828C91.364 25.527 91.3673 26.1909 91.242 26.8364ZM93.3641 22.7873C92.9331 22.7039 92.5364 22.4948 92.2241 22.1862C91.9118 21.8777 91.6979 21.4836 91.6093 21.0536C91.5208 20.6236 91.5615 20.177 91.7265 19.7702C91.8914 19.3633 92.1731 19.0144 92.5361 18.7675C92.8991 18.5206 93.3271 18.3867 93.766 18.3827C94.205 18.3787 94.6354 18.5048 95.0028 18.7451C95.3702 18.9854 95.6582 19.3291 95.8305 19.7329C96.0028 20.1367 96.0516 20.5825 95.9709 21.014C95.917 21.302 95.8067 21.5765 95.6463 21.8217C95.4859 22.067 95.2786 22.2781 95.0363 22.4429C94.7941 22.6077 94.5216 22.723 94.2346 22.7821C93.9476 22.8412 93.6518 22.843 93.3641 22.7873ZM103.797 29.2482C103.61 30.2192 103.139 31.1129 102.444 31.8163C101.749 32.5197 100.861 33.0012 99.8918 33.2C98.9231 33.3987 97.9171 33.3057 97.0012 32.9328C96.0853 32.5599 95.3005 31.9238 94.746 31.1049C94.1915 30.286 93.8923 29.3212 93.8862 28.3322C93.88 27.3433 94.1672 26.3748 94.7115 25.5491C95.2557 24.7234 96.0325 24.0776 96.9438 23.6933C97.855 23.309 98.8597 23.2036 99.8309 23.3902C100.476 23.5143 101.09 23.7642 101.639 24.1257C102.188 24.4873 102.659 24.9534 103.028 25.4974C103.396 26.0414 103.654 26.6526 103.786 27.2962C103.918 27.9398 103.922 28.6031 103.797 29.2482ZM100.487 19.9795C99.516 19.7923 98.6222 19.3213 97.9188 18.6261C97.2154 17.931 96.7339 17.0429 96.5352 16.0741C96.3365 15.1054 96.4294 14.0995 96.8023 13.1835C97.1752 12.2676 97.8114 11.4828 98.6302 10.9283C99.4491 10.3739 100.414 10.0746 101.403 10.0685C102.392 10.0624 103.36 10.3495 104.186 10.8938C105.012 11.438 105.658 12.2149 106.042 13.1261C106.426 14.0373 106.532 15.042 106.345 16.0132C106.222 16.6589 105.972 17.2739 105.611 17.8231C105.25 18.3723 104.784 18.8449 104.24 19.2139C103.695 19.5828 103.084 19.8409 102.44 19.9732C101.796 20.1056 101.132 20.1098 100.487 19.9854V19.9795Z" fill="#90A0AF"/>
</svg>
