<svg width="115" height="49" viewBox="0 0 115 49" fill="none" xmlns="http://www.w3.org/2000/svg">
<path fill-rule="evenodd" clip-rule="evenodd" d="M108.63 14.3645C108.965 14.2444 109.301 14.1365 109.638 14.0407C110.249 13.8671 110.863 13.733 111.477 13.637C111.89 14.4548 112.261 15.3038 112.585 16.1824C116.005 25.4457 113.354 35.4265 106.637 41.8817C106.092 41.5928 105.565 41.2713 105.058 40.9189C102.587 39.201 100.604 36.7468 99.4914 33.7323C96.5944 25.886 100.686 17.2146 108.63 14.3645Z" fill="#90A0AF"/>
<path fill-rule="evenodd" clip-rule="evenodd" d="M68.4332 28.7855C76.3774 25.9353 85.1658 29.9855 88.0636 37.8319C89.1823 40.8627 89.2587 44.0167 88.4733 46.9107C88.3084 47.5182 88.1055 48.1142 87.8663 48.6953C78.4379 48.0721 69.8087 42.0884 66.3658 32.7641C66.0471 31.901 65.7812 31.0318 65.5663 30.1598C66.129 29.8142 66.72 29.5017 67.3376 29.2258C67.694 29.0666 68.0593 28.9196 68.4332 28.7855Z" fill="#90A0AF"/>
<path d="M0.078125 24.8863C1.59169 24.5629 2.80772 24.2136 3.72621 23.8385C4.65764 23.4633 5.34328 23.0235 5.78312 22.5189C6.22296 22.0144 6.44288 21.4129 6.44288 20.7143C6.44288 19.9381 6.33292 19.1878 6.113 18.4633C5.90601 17.7389 5.62141 17.1568 5.25919 16.7169C4.89697 16.2641 4.5024 16.0377 4.0755 16.0377C3.82971 16.0377 3.59685 16.1283 3.37693 16.3094C3.16995 16.4776 3.00177 16.691 2.87241 16.9498C2.75598 17.2085 2.69776 17.4478 2.69776 17.6677C2.69776 17.8489 2.73657 17.9976 2.81419 18.1141C3.03411 18.3728 3.51923 18.5474 4.26955 18.638C5.0328 18.7156 6.10006 18.7544 7.47133 18.7544H9.35359L9.52823 20.3844L9.35359 22.0144L6.85038 22.0338C5.19451 22.0338 3.87498 21.9044 2.89181 21.6457C1.90864 21.3741 1.22947 20.8178 0.854314 19.9769C0.621458 19.4465 0.505029 18.8644 0.505029 18.2305C0.505029 17.4284 0.673203 16.6393 1.00955 15.8631C1.3459 15.074 1.80515 14.4272 2.38729 13.9226C2.98237 13.4181 3.63566 13.1658 4.34717 13.1658C5.13629 13.1658 5.85427 13.5022 6.50109 14.1749C7.16085 14.8476 7.67831 15.7402 8.05347 16.8527C8.42863 17.9524 8.61621 19.1296 8.61621 20.3844C8.61621 21.6263 8.3122 22.7453 7.70418 23.7414C7.09617 24.7505 6.22942 25.5913 5.10395 26.264C3.97848 26.9367 2.63955 27.4154 1.08717 27.7L0.078125 24.8863ZM9.09946 18.7544H10.0698C11.3117 18.7544 12.1914 18.6509 12.7088 18.4439C13.2392 18.237 13.5044 17.9329 13.5044 17.5319C13.5044 17.2861 13.3621 16.7751 13.0775 15.9989C12.7929 15.2098 12.5795 14.6665 12.4372 14.3689L14.6881 13.127C14.9468 13.6704 15.2056 14.3948 15.4643 15.3004C15.736 16.2059 15.8718 17.008 15.8718 17.7066C15.8718 19.0908 15.4255 20.158 14.5329 20.9083C13.6403 21.6457 12.3272 22.0144 10.5937 22.0144H9.09946V18.7544ZM10.8848 9.09086L12.6118 10.7985L10.8848 12.5449L9.15768 10.7985L10.8848 9.09086ZM14.2806 9.09086L16.0076 10.7985L14.2806 12.5449L12.5536 10.7985L14.2806 9.09086ZM22.1539 22.0144C20.705 22.0144 19.6507 21.594 18.9909 20.7531C18.3312 19.8993 17.9948 18.625 17.9819 16.9304C17.9302 13.1658 17.7426 10.1775 17.4192 7.96538L20.097 7.36383C20.2523 8.48931 20.3687 9.96407 20.4463 11.7881C20.5369 13.5992 20.5821 15.268 20.5821 16.7945C20.5821 17.312 20.6274 17.713 20.718 17.9976C20.8085 18.2693 20.9638 18.4633 21.1837 18.5798C21.4036 18.6962 21.727 18.7544 22.1539 18.7544H22.2315L22.4062 20.3844L22.2315 22.0144H22.1539ZM22.0807 18.7544H22.1777C23.1997 18.7544 23.9888 18.7091 24.5451 18.6186C25.1013 18.528 25.4894 18.3857 25.7093 18.1917C25.9422 17.9976 26.0716 17.7324 26.0974 17.3961C26.1363 16.8657 26.0716 16.1606 25.9034 15.281L28.1155 14.8541C28.2966 15.8243 28.3872 16.898 28.3872 18.0752C28.4131 18.2305 28.5295 18.3857 28.7365 18.541C28.9564 18.6833 29.2863 18.7544 29.7261 18.7544H29.8232L29.9978 20.3844L29.8232 22.0144H29.7261C29.1311 22.0144 28.5812 21.8656 28.0767 21.5681C27.5851 21.2576 27.1712 20.8566 26.8348 20.365L27.3588 20.4814C26.9577 21.0248 26.3691 21.4193 25.5929 21.6651C24.8167 21.898 23.6783 22.0144 22.1777 22.0144H22.0807V18.7544ZM25.3213 27.0402L23.5942 25.3326L25.3213 23.5862L27.0483 25.3326L25.3213 27.0402ZM21.9254 27.0402L20.1984 25.3326L21.9254 23.5862L23.6524 25.3326L21.9254 27.0402ZM44.2729 22.0144C41.3492 22.0015 39.5252 20.9148 38.8008 18.7544L40.4307 17.2214C40.4954 17.4284 40.6507 17.6483 40.8965 17.8812C41.1423 18.1141 41.4657 18.321 41.8667 18.5022C42.2807 18.6703 42.7464 18.7544 43.2638 18.7544H44.4863L44.661 20.3844L44.4863 22.0144H44.2729ZM29.6029 18.7544H30.9418C32.4554 18.7544 33.8655 18.5992 35.1721 18.2887C36.4787 17.9653 37.9146 17.3896 39.4799 16.5617C40.6183 15.9537 41.3945 15.5914 41.8085 15.475L41.9055 17.9394C41.2328 17.823 40.586 17.6613 39.965 17.4543C39.3441 17.2344 38.5873 16.898 37.6947 16.4452C37.1772 16.1865 36.6533 15.986 36.1229 15.8437C35.6054 15.6885 35.1397 15.6108 34.7258 15.6108C34.26 15.6108 33.8461 15.7337 33.4839 15.9795C33.1346 16.2253 32.8564 16.497 32.6495 16.7945L30.8448 15.4556C31.8539 13.4505 33.1863 12.4479 34.8422 12.4479C35.3985 12.4479 35.9288 12.5384 36.4334 12.7195C36.9508 12.9007 37.7012 13.2435 38.6843 13.748C39.4217 14.1361 40.0491 14.4272 40.5666 14.6212C41.097 14.8153 41.6791 14.977 42.313 15.1063L42.41 18.0558C42.0737 18.1464 41.4527 18.4504 40.5472 18.9679L39.8098 19.356C38.4644 20.0545 37.3195 20.5914 36.3752 20.9666C35.4308 21.3417 34.48 21.6069 33.5227 21.7621C32.5654 21.9174 31.4464 22.0015 30.1656 22.0144H29.6029V18.7544ZM35.4243 24.246C35.696 23.9613 35.9741 23.6832 36.2587 23.4115L36.8991 24.0519C37.7529 24.9057 38.1798 25.3326 38.1798 25.3326L36.2587 27.2731C36.2587 27.2731 35.8318 26.8462 34.978 25.9924L34.3183 25.3326L35.4243 24.246ZM44.2895 18.7544H45.2598C46.5017 18.7544 47.3814 18.6509 47.8988 18.4439C48.4292 18.237 48.6944 17.9329 48.6944 17.5319C48.6944 17.2861 48.5521 16.7751 48.2675 15.9989C47.9829 15.2098 47.7695 14.6665 47.6272 14.3689L49.8781 13.127C50.1368 13.6704 50.3956 14.3948 50.6543 15.3004C50.926 16.2059 51.0618 17.008 51.0618 17.7066C51.0618 19.0908 50.6155 20.158 49.7229 20.9083C48.8302 21.6457 47.5172 22.0144 45.7837 22.0144H44.2895V18.7544ZM47.8988 27.0402L46.1718 25.3326L47.8988 23.5862L49.6258 25.3326L47.8988 27.0402ZM44.503 27.0402L42.776 25.3326L44.503 23.5862L46.23 25.3326L44.503 27.0402ZM56.9364 22.1114C55.7721 22.1114 54.8019 21.9303 54.0257 21.5681C53.2624 21.2059 52.6868 20.8566 52.2987 20.5202L53.4436 18.2305C53.8834 18.4375 54.3491 18.625 54.8407 18.7932C55.3452 18.9485 55.9403 19.0261 56.6259 19.0261C57.3116 19.0131 57.8808 18.942 58.3335 18.8126C58.7863 18.6703 59.0839 18.5216 59.2262 18.3663C59.252 18.1723 59.1615 17.8747 58.9545 17.4737C58.7605 17.0597 58.3594 16.5423 57.7514 15.9213C57.1563 15.2874 56.3025 14.6018 55.19 13.8644L56.7424 10.9925C58.2559 12.0404 59.459 13.2176 60.3516 14.5242C61.2572 15.8178 61.71 17.0597 61.71 18.2499C61.71 18.8062 61.6065 19.3172 61.3995 19.7829C61.0761 20.5332 60.4939 21.1089 59.6531 21.5099C58.8251 21.9109 57.9196 22.1114 56.9364 22.1114Z" fill="#90A0AF"/>
<path d="M1.27467 42.167C1.32857 41.7628 1.35552 41.0789 1.35552 40.1154C1.35552 39.1923 1.32857 38.2254 1.27467 37.2148C1.22751 36.2041 1.1736 35.5135 1.11296 35.1429L2.22469 34.8903C2.2786 35.2541 2.32913 35.9278 2.37629 36.9116C2.42345 37.8885 2.44704 38.8453 2.44704 39.7819C2.44704 40.8936 2.40998 41.7291 2.33587 42.2883L1.27467 42.167ZM5.64216 42.2681C5.07619 42.2681 4.5978 42.1872 4.20702 42.0255C3.81622 41.8571 3.51302 41.6819 3.29742 41.5L3.79264 40.5702C4.02846 40.6915 4.27776 40.7992 4.54053 40.8936C4.81004 40.9812 5.13683 41.025 5.52088 41.025C5.88472 41.025 6.18117 40.9812 6.41026 40.8936C6.64608 40.806 6.80105 40.7083 6.87517 40.6005C6.88864 40.5466 6.89538 40.4994 6.89538 40.459C6.89538 40.1962 6.7303 39.8459 6.40015 39.4079C6.07 38.9699 5.53435 38.4916 4.7932 37.9728L5.41981 36.8408C6.18791 37.4001 6.79431 37.9997 7.239 38.6398C7.69044 39.2731 7.91618 39.8762 7.91618 40.4489C7.91618 40.6982 7.86565 40.9407 7.76458 41.1766C7.6163 41.5269 7.34343 41.7965 6.94591 41.9851C6.55512 42.1737 6.12053 42.2681 5.64216 42.2681ZM11.4183 42.2277C10.9736 42.2277 10.6165 42.0694 10.347 41.7527C10.0843 41.4292 9.86191 40.9711 9.67999 40.3782L10.4784 39.893C10.5728 40.2704 10.6907 40.5365 10.8321 40.6915C10.9736 40.8465 11.1691 40.9239 11.4183 40.9239H11.4992L11.5699 41.5707L11.4992 42.2277H11.4183ZM7.44642 44.057C7.88441 43.8886 8.28528 43.683 8.64911 43.4405C9.01295 43.1979 9.29933 42.952 9.50818 42.7027C9.71702 42.4534 9.82148 42.2311 9.82148 42.0356C9.82148 41.8874 9.78106 41.6415 9.7002 41.2979C9.61935 40.9475 9.51157 40.5095 9.37679 39.984C9.32286 39.7954 9.28583 39.6539 9.26562 39.5595L10.2763 39.1654C10.4313 39.637 10.5559 40.139 10.6502 40.6713C10.7513 41.1968 10.8018 41.6516 10.8018 42.0356C10.8018 42.6758 10.5391 43.2721 10.0135 43.8245C9.49468 44.377 8.81421 44.8217 7.97197 45.1586L7.44642 44.057ZM11.3929 40.9239H11.5344C12.6124 40.9239 13.4143 40.8397 13.9398 40.6713C14.4654 40.5028 14.7652 40.1996 14.8393 39.7617C14.8393 39.4045 14.7854 39.0441 14.6776 38.6802C14.5765 38.3164 14.4316 38.0166 14.243 37.7808C14.0611 37.5382 13.8489 37.4169 13.6063 37.4169C13.4648 37.4169 13.33 37.4674 13.202 37.5685C13.0808 37.6629 12.983 37.7842 12.9089 37.9324C12.8348 38.0738 12.7978 38.2119 12.7978 38.3467C12.7978 38.468 12.8281 38.5691 12.8887 38.6499C12.9898 38.7914 13.175 38.906 13.4446 38.9935C13.7208 39.0744 14.0308 39.1148 14.3744 39.1148C14.6102 39.1148 14.8426 39.0946 15.0718 39.0542V40.2266C14.7213 40.2939 14.4047 40.3276 14.1217 40.3276C13.65 40.3276 13.229 40.2502 12.8584 40.0952C12.4946 39.9335 12.2318 39.6943 12.0701 39.3776C11.9488 39.1418 11.8882 38.8588 11.8882 38.5286C11.8882 38.1648 11.9656 37.8077 12.1206 37.4573C12.2823 37.107 12.5013 36.8206 12.7776 36.5983C13.0605 36.3759 13.3671 36.2648 13.6973 36.2648C14.1015 36.2648 14.462 36.4332 14.7787 36.7701C15.0953 37.1002 15.3345 37.5281 15.4962 38.0536C15.6647 38.5792 15.732 39.1182 15.6984 39.6707C15.6647 40.4859 15.3008 41.1159 14.6069 41.5606C13.9128 42.0053 12.8887 42.2277 11.5344 42.2277H11.3929V40.9239ZM13.5457 33.8594L14.4047 34.7184L13.5457 35.5876L12.6866 34.7184L13.5457 33.8594ZM26.2351 42.2277C25.6894 42.2277 25.275 42.0255 24.992 41.6213C24.709 41.217 24.5574 40.6645 24.5372 39.9638L25.1739 39.8425C25.1942 40.1457 25.2346 40.3714 25.2952 40.5197C25.3626 40.6679 25.467 40.7723 25.6085 40.833C25.75 40.8936 25.9589 40.9239 26.2351 40.9239H26.3564L26.4272 41.5707L26.3564 42.2277H26.2351ZM22.1116 44.8251C21.5794 44.8251 21.0909 44.7173 20.6462 44.5017C20.2082 44.286 19.8579 43.9795 19.5951 43.582C19.339 43.1844 19.211 42.7195 19.211 42.1872C19.211 41.8032 19.2784 41.3787 19.4132 40.9138C19.5479 40.4489 19.7096 40.0244 19.8983 39.6404L20.7776 40.0547C20.6023 40.4321 20.4676 40.7723 20.3733 41.0755C20.2789 41.3787 20.2318 41.6819 20.2318 41.9851C20.2318 42.4433 20.4036 42.8139 20.7472 43.0968C21.0909 43.3798 21.5457 43.5213 22.1116 43.5213C23.5535 43.5213 24.2508 42.7768 24.2037 41.2878C24.1633 40.0008 24.106 38.7981 24.0319 37.6797C23.9577 36.5612 23.8837 35.7156 23.8095 35.1429L24.9112 34.8903C25.0189 35.7931 25.12 37.9087 25.2144 41.2372C25.2413 42.3625 24.9819 43.2417 24.4362 43.8751C23.8904 44.5084 23.1156 44.8251 22.1116 44.8251ZM34.5141 42.2277C34.1166 42.2277 33.7696 42.1098 33.4731 41.8739C33.1834 41.6314 32.9645 41.2844 32.8162 40.833C32.7421 40.5971 32.6208 40.0278 32.4523 39.1249L33.3922 38.8723C33.4731 39.3103 33.5371 39.6471 33.5843 39.8829C33.6315 40.112 33.6786 40.2872 33.7258 40.4085C33.7797 40.5769 33.8707 40.705 33.9986 40.7925C34.1267 40.8801 34.2985 40.9239 34.5141 40.9239H34.5747L34.6354 41.5707L34.5646 42.2277H34.5141ZM31.8864 40.9239H31.9167C32.1458 40.9239 32.3547 40.8633 32.5433 40.742C32.7387 40.6207 32.8432 40.4792 32.8566 40.3175L33.655 40.4186C33.6281 40.7487 33.5304 41.0519 33.3619 41.3282C33.2002 41.6045 32.9914 41.8234 32.7353 41.9851C32.486 42.1468 32.2132 42.2277 31.9167 42.2277H31.8864V40.9239ZM29.1677 40.9239H29.2081C29.5652 40.9239 29.8516 40.7218 30.0672 40.3175C30.2019 40.0547 30.3165 39.6471 30.4108 39.0946L31.3608 39.135C31.28 39.5393 31.2395 39.8661 31.2395 40.1154C31.2395 40.6544 31.4619 40.9239 31.9066 40.9239H31.9369L31.9975 41.5707L31.9369 42.2277H31.9066C31.536 42.2277 31.2294 42.1232 30.9869 41.9144C30.7443 41.7055 30.5793 41.4124 30.4916 41.0351L30.7241 41.025C30.5422 41.3955 30.3198 41.6886 30.0571 41.9043C29.8011 42.1199 29.5147 42.2277 29.198 42.2277H29.1677V40.9239ZM26.2873 42.2277L26.2165 41.5707L26.2873 40.9239H26.3277C26.5501 40.9239 26.7657 40.8734 26.9745 40.7723C27.1835 40.6712 27.3418 40.5466 27.4495 40.3984C27.591 40.2232 27.6989 40.0311 27.773 39.8223C27.8538 39.6135 27.9212 39.3944 27.9751 39.1654L28.9251 39.2664C28.9251 39.2731 28.9083 39.3507 28.8746 39.4989C28.7735 39.8896 28.723 40.1794 28.723 40.3681C28.723 40.5567 28.7601 40.6982 28.8342 40.7925C28.9083 40.8801 29.0262 40.9239 29.1879 40.9239H29.2081L29.2788 41.5707L29.2081 42.2277H29.1677C28.8713 42.2277 28.6152 42.1468 28.3996 41.9851C28.1907 41.8167 28.0526 41.5943 27.9852 41.3181C27.7696 41.6146 27.5203 41.8402 27.2373 41.9952C26.9543 42.1502 26.6478 42.2277 26.3176 42.2277H26.2873ZM34.4489 40.9239H34.9846C35.4831 40.9239 35.8436 40.8667 36.066 40.7521C36.2883 40.6308 36.3995 40.4489 36.3995 40.2063C36.3995 40.0514 36.3254 39.7515 36.1771 39.3069C36.0357 38.8622 35.9278 38.559 35.8537 38.3973L36.8038 37.8818C36.9318 38.1513 37.0631 38.5219 37.1979 38.9935C37.3394 39.4652 37.4102 39.8762 37.4102 40.2266C37.4102 40.8801 37.2012 41.3787 36.7835 41.7223C36.3658 42.0593 35.7661 42.2277 34.9846 42.2277H34.4489V40.9239ZM36.0154 35.6887L36.8745 36.5477L36.0154 37.4169L35.1564 36.5477L36.0154 35.6887ZM44.1789 41.5202C43.7476 41.6617 43.3299 41.7324 42.9256 41.7324C42.3394 41.7324 41.861 41.5943 41.4905 41.3181C41.1199 41.0351 40.9346 40.651 40.9346 40.1659C40.9346 39.573 41.1738 39.0778 41.6522 38.6802C42.1305 38.276 42.774 37.929 43.5826 37.6393L43.815 38.8116C43.3366 38.9194 42.9054 39.0845 42.5214 39.3069C42.144 39.5225 41.9453 39.7313 41.9251 39.9335C41.9116 40.0952 41.9924 40.23 42.1676 40.3377C42.3428 40.4455 42.5786 40.4994 42.8751 40.4994C43.2052 40.4994 43.5556 40.4287 43.9262 40.2872L44.1789 41.5202ZM45.523 42.2277C44.9436 42.2277 44.4989 42.0492 44.189 41.692C43.8858 41.3282 43.6836 40.7285 43.5826 39.893L43.2389 37.1339L44.3001 36.9217C44.3203 37.0699 44.3338 37.2114 44.3406 37.3462C44.354 37.481 44.3675 37.6089 44.381 37.7302L44.6033 39.7212C44.6438 40.0649 44.6943 40.3209 44.7549 40.4893C44.8156 40.651 44.9031 40.7656 45.0177 40.833C45.1322 40.8936 45.3007 40.9239 45.523 40.9239H45.6948L45.7656 41.5707L45.6948 42.2277H45.523ZM45.582 40.9239H46.1176C46.6163 40.9239 46.9767 40.8667 47.199 40.7521C47.4214 40.6308 47.5326 40.4489 47.5326 40.2063C47.5326 40.0514 47.4584 39.7515 47.3102 39.3069C47.1687 38.8622 47.0609 38.559 46.9868 38.3973L47.9368 37.8818C48.0648 38.1513 48.1962 38.5219 48.331 38.9935C48.4725 39.4652 48.5432 39.8762 48.5432 40.2266C48.5432 40.8801 48.3344 41.3787 47.9166 41.7223C47.4988 42.0593 46.8992 42.2277 46.1176 42.2277H45.582V40.9239ZM47.1485 35.6887L48.0076 36.5477L47.1485 37.4169L46.2894 36.5477L47.1485 35.6887ZM51.7582 42.2277C51.0237 42.2277 50.505 42.0289 50.2018 41.6314C49.8986 41.2338 49.747 40.6106 49.747 39.7617C49.747 38.9868 49.7233 38.1513 49.6762 37.2552C49.6358 36.3523 49.5785 35.6483 49.5044 35.1429L50.606 34.8903C50.6734 35.3687 50.7273 36.0929 50.7677 37.0632C50.8082 38.0267 50.825 38.8588 50.8183 39.5595C50.8115 39.9301 50.8284 40.2097 50.8688 40.3984C50.9092 40.5803 50.9968 40.7151 51.1316 40.8026C51.2663 40.8835 51.4752 40.9239 51.7582 40.9239H51.8087L51.8694 41.5707L51.8087 42.2277H51.7582ZM57.3506 40.9239H57.3708C57.5864 40.9239 57.7515 40.8633 57.8661 40.742C57.9873 40.614 58.048 40.4455 58.048 40.2367C58.048 40.0345 57.9839 39.7448 57.856 39.3675C57.7279 38.9834 57.61 38.6634 57.5022 38.4074L58.432 37.8919C58.5667 38.1816 58.7015 38.5624 58.8363 39.034C58.9778 39.4989 59.0485 39.9099 59.0485 40.267C59.0485 40.6308 58.9778 40.9609 58.8363 41.2574C58.6948 41.5539 58.496 41.7897 58.24 41.9649C57.9839 42.1401 57.6942 42.2277 57.3708 42.2277H57.3506V40.9239ZM54.6218 40.9239H54.6623C55.0193 40.9239 55.3057 40.7218 55.5213 40.3175C55.656 40.0547 55.7706 39.6471 55.8649 39.0946L56.815 39.135C56.7341 39.5393 56.6937 39.8661 56.6937 40.1154C56.6937 40.6544 56.916 40.9239 57.3607 40.9239H57.391L57.4517 41.5707L57.391 42.2277H57.3607C56.9901 42.2277 56.6836 42.1232 56.441 41.9144C56.1985 41.7055 56.0334 41.4124 55.9458 41.0351L56.1783 41.025C55.9963 41.3955 55.774 41.6886 55.5112 41.9043C55.2552 42.1199 54.9688 42.2277 54.6521 42.2277H54.6218V40.9239ZM51.7414 42.2277L51.6707 41.5707L51.7414 40.9239H51.7819C52.0042 40.9239 52.2198 40.8734 52.4287 40.7723C52.6375 40.6712 52.7958 40.5466 52.9037 40.3984C53.0452 40.2232 53.153 40.0311 53.2271 39.8223C53.308 39.6135 53.3753 39.3944 53.4293 39.1654L54.3793 39.2664C54.3793 39.2731 54.3624 39.3507 54.3287 39.4989C54.2277 39.8896 54.1771 40.1794 54.1771 40.3681C54.1771 40.5567 54.2142 40.6982 54.2883 40.7925C54.3624 40.8801 54.4803 40.9239 54.642 40.9239H54.6623L54.733 41.5707L54.6623 42.2277H54.6218C54.3253 42.2277 54.0693 42.1468 53.8537 41.9851C53.6448 41.8167 53.5067 41.5943 53.4394 41.3181C53.2237 41.6146 52.9745 41.8402 52.6915 41.9952C52.4085 42.1502 52.1019 42.2277 51.7718 42.2277H51.7414ZM58.5717 44.057C59.0097 43.8886 59.4106 43.683 59.7744 43.4405C60.1383 43.1979 60.4247 42.952 60.6335 42.7027C60.8424 42.4534 60.9468 42.2311 60.9468 42.0356C60.9468 41.8874 60.9064 41.6415 60.8255 41.2979C60.7447 40.9475 60.6369 40.5095 60.5021 39.984C60.4483 39.7954 60.4112 39.6539 60.3909 39.5595L61.4016 39.1654C61.5566 39.637 61.6813 40.139 61.7755 40.6713C61.8766 41.1968 61.9271 41.6516 61.9271 42.0356C61.9271 42.6758 61.6644 43.2721 61.1388 43.8245C60.6201 44.377 59.9395 44.8217 59.0973 45.1586L58.5717 44.057Z" fill="#90A0AF"/>
<path fill-rule="evenodd" clip-rule="evenodd" d="M96.5095 1.19765C91.6244 -0.240816 86.246 -0.199198 81.0884 1.65108C75.9661 3.48897 71.84 6.83209 69.0365 10.9909C69.446 11.5212 69.8882 12.0205 70.359 12.4871C72.0489 9.85437 74.3016 7.55516 77.0244 5.78615C78.4772 4.8423 80.0637 4.04937 81.77 3.43723C85.3063 2.16844 88.9551 1.82043 92.4468 2.269C93.8161 2.44487 95.1611 2.7433 96.4658 3.15667C96.5232 2.50924 96.5384 1.85497 96.5095 1.19765ZM68.2016 32.1692C67.9921 31.6018 67.8072 31.0314 67.6464 30.4593C67.4592 29.7931 67.3047 29.1246 67.1821 28.4555C67.2292 28.7124 67.281 28.9692 67.3376 29.2258C67.694 29.0666 68.0593 28.9196 68.4332 28.7855C76.3774 25.9353 85.1658 29.9855 88.0636 37.8319C89.1823 40.8627 89.2587 44.0167 88.4733 46.9107C79.6051 46.4841 71.4321 40.9184 68.2016 32.1692ZM67.6596 26.7788C67.427 26.8622 67.1973 26.95 66.9701 27.0425C66.4539 22.6273 67.2983 18.2414 69.2583 14.4031C73.91 18.6839 80.7691 20.2981 87.15 18.0086C93.5317 15.7191 97.7328 10.1368 98.5042 3.9099C103.166 5.88716 107.154 9.39138 109.638 14.0407C109.287 13.3845 108.906 12.7512 108.498 12.1415C108.283 12.2094 108.07 12.2815 107.856 12.358C98.7977 15.6082 94.1316 25.4944 97.4345 34.4396C98.6399 37.7045 100.74 40.3928 103.363 42.3322C101.577 43.6786 99.5561 44.784 97.3318 45.5821C95.0857 46.3879 92.7943 46.8223 90.5265 46.9171L90.6436 46.9119C91.3931 43.7594 91.2509 40.362 90.0429 37.0905C86.7401 28.1453 76.7186 23.5286 67.6596 26.7788ZM103.363 42.3322L103.364 42.3329C108.123 38.745 111.216 33.4452 112.051 27.6862C112.564 24.1507 112.226 20.442 110.9 16.8502C110.598 16.0327 110.253 15.2432 109.868 14.4832C109.793 14.3345 109.716 14.1871 109.638 14.0407C109.301 14.1365 108.965 14.2444 108.63 14.3645C100.686 17.2146 96.5944 25.886 99.4914 33.7323C100.604 36.7468 102.587 39.201 105.058 40.9189C104.52 41.4148 103.954 41.8867 103.363 42.3322Z" fill="#90A0AF"/>
<path d="M92.4468 2.269C88.9551 1.82043 85.3063 2.16844 81.77 3.43723C80.0637 4.04937 78.4772 4.8423 77.0244 5.78615C74.3016 7.55516 72.0489 9.85437 70.359 12.4871C74.4385 16.5297 80.6703 18.1125 86.4546 16.0373C92.2256 13.9667 95.9634 8.82391 96.4658 3.15667C95.1611 2.7433 93.8161 2.44487 92.4468 2.269Z" fill="#90A0AF"/>
</svg>
