<svg width="114" height="21" viewBox="0 0 114 21" fill="none" xmlns="http://www.w3.org/2000/svg">
<path d="M2.94043 15.87L9.08823 5.29H0L3.47503 0H12.8306L15.2363 5.29L10.3901 20.1337H5.84602L2.94043 15.87Z" fill="#A5B4C1"/>
<path d="M6.52991 15.2363L16.3247 0L19.5896 4.89737L13.0597 15.2363H19.8616L17.685 11.6993H23.9428L26.2439 15.2363L23.1266 20.1337H9.79482L6.52991 15.2363Z" fill="#90A0AF"/>
<path d="M43.2601 3.26465H25.8472V8.4341H34.0095L25.031 20.1334H42.716V15.236H34.2816L43.2601 3.26465Z" fill="#90A0AF"/>
<path d="M79.9905 19.9599V2.2749L88.4249 12.8859L96.8592 2.2749V19.9599H93.0502V14.103L88.4249 19.9599L83.7996 14.103V19.9599H79.9905Z" fill="#90A0AF"/>
<path d="M114 3.36321H97.6755V19.9599H110.076L111.279 18.0553L109.095 15.0668L101.485 15.0625V8.26058H114V3.36321Z" fill="#90A0AF"/>
<path fill-rule="evenodd" clip-rule="evenodd" d="M60.9452 3.26477H44.0764V19.96H60.9452V3.26477ZM47.8855 7.89007H56.864V14.9641H47.8855V7.89007Z" fill="#90A0AF"/>
<path fill-rule="evenodd" clip-rule="evenodd" d="M79.1743 3.2646H62.3055V19.9599H79.1743V3.2646ZM66.1146 7.88989H75.0931V14.9639H66.1146V7.88989Z" fill="#90A0AF"/>
<path d="M109.095 15.0668L111.279 18.0553L114 14.4198V13.7021L112.096 10.9813H106.11L109.095 15.0668Z" fill="#A5B4C1"/>
</svg>
